<svg width="23" height="8" viewBox="0 0 23 8" fill="none" xmlns="http://www.w3.org/2000/svg" style="scale: 1;"><circle opacity="1" cx="1" cy="1" r="1" class="Sound_Circle__UfFL2"></circle><circle opacity="1" cx="4" cy="1" r="1" class="Sound_Circle__UfFL2"></circle><circle opacity="0.2" cx="7" cy="1" r="1" class="Sound_Circle__UfFL2"></circle><circle opacity="0.2" cx="10" cy="1" r="1" class="Sound_Circle__UfFL2"></circle><circle opacity="0.2" cx="13" cy="1" r="1" class="Sound_Circle__UfFL2"></circle><circle opacity="0.2" cx="16" cy="1" r="1" class="Sound_Circle__UfFL2"></circle><circle opacity="1" cx="19" cy="1" r="1" class="Sound_Circle__UfFL2"></circle><circle opacity="1" cx="22" cy="1" r="1" class="Sound_Circle__UfFL2"></circle><circle opacity="0.2" cx="1" cy="4" r="1" class="Sound_Circle__UfFL2"></circle><circle opacity="0.2" cx="4" cy="4" r="1" class="Sound_Circle__UfFL2"></circle><circle opacity="1" cx="7" cy="4" r="1" class="Sound_Circle__UfFL2"></circle><circle opacity="0.2" cx="10" cy="4" r="1" class="Sound_Circle__UfFL2"></circle><circle opacity="0.2" cx="13" cy="4" r="1" class="Sound_Circle__UfFL2"></circle><circle opacity="1" cx="16" cy="4" r="1" class="Sound_Circle__UfFL2"></circle><circle opacity="0.2" cx="19" cy="4" r="1" class="Sound_Circle__UfFL2"></circle><circle opacity="0.2" cx="22" cy="4" r="1" class="Sound_Circle__UfFL2"></circle><circle opacity="0.2" cx="1" cy="7" r="1" class="Sound_Circle__UfFL2"></circle><circle opacity="0.2" cx="4" cy="7" r="1" class="Sound_Circle__UfFL2"></circle><circle opacity="0.2" cx="7" cy="7" r="1" class="Sound_Circle__UfFL2"></circle><circle opacity="1" cx="10" cy="7" r="1" class="Sound_Circle__UfFL2"></circle><circle opacity="1" cx="13" cy="7" r="1" class="Sound_Circle__UfFL2"></circle><circle opacity="0.2" cx="16" cy="7" r="1" class="Sound_Circle__UfFL2"></circle><circle opacity="0.2" cx="19" cy="7" r="1" class="Sound_Circle__UfFL2"></circle><circle opacity="0.2" cx="22" cy="7" r="1" class="Sound_Circle__UfFL2"></circle></svg>